<svg xmlns="http://www.w3.org/2000/svg" viewBox="0 0 60 63.93"><defs><style>.cls-1{fill:#ffda00;}.cls-2{fill:#ccae00;}.cls-3{fill:#aa752e;}.cls-4{fill:#fea401;}</style></defs><title>Fruit Banana</title><g id="Layer_2" data-name="Layer 2"><g id="Layer_1-2" data-name="Layer 1"><path class="cls-1" d="M59.4,18.24c-.4-.36-.77-.76-1.19-1.08a4.31,4.31,0,0,0-3-.78c-.25,0-.5,0-.75,0v0a9.08,9.08,0,0,0-3,1c-.58.32-1.15.66-1.72,1l-.72,2L49,20.5h0A10.83,10.83,0,0,1,48,23.33a44.85,44.85,0,0,1-5.6,10.13A40.51,40.51,0,0,1,37,39.52a36.54,36.54,0,0,1-18.85,9.1,33.37,33.37,0,0,1-5.17.51,4.19,4.19,0,0,0-.68.11,7.68,7.68,0,0,0-1.81.07A31.77,31.77,0,0,1,6.36,50a3.05,3.05,0,0,0-3.28,2.4c0,.16-.1.32-.15.47a5.09,5.09,0,0,0-.6,1.69,1.86,1.86,0,0,0,.77,2.08,15.17,15.17,0,0,1,1.45,1.29A12.15,12.15,0,0,0,7.48,60a35.8,35.8,0,0,0,21.86,3.44,33.8,33.8,0,0,0,12.56-4.7,37.23,37.23,0,0,0,14.71-17,39.86,39.86,0,0,0,3.3-13.56A43.37,43.37,0,0,0,59.4,18.24Z"/><path class="cls-2" d="M49,20.51A10.83,10.83,0,0,1,48,23.33a44.86,44.86,0,0,1-5.6,10.13,40.51,40.51,0,0,1-5.41,6,36.54,36.54,0,0,1-18.85,9.1,33.37,33.37,0,0,1-5.17.51,4.2,4.2,0,0,0-.68.11c.09-.26-.16-.26-.28-.33a33.8,33.8,0,0,1-9.51-7.7A11.12,11.12,0,0,1,1.17,38.9c-.31-.61-.6-1.24-.93-1.84a1.6,1.6,0,0,1,0-1.67,11.28,11.28,0,0,1,2.33-2.85c.59-.52,1.26-.35,2-.23C8,33,11.29,34.22,14.72,35c9.08,2,17.34,0,24.86-5.3a42.8,42.8,0,0,0,9.22-9A2.35,2.35,0,0,1,49,20.51Z"/><path class="cls-3" d="M59.36,17.87c-.76-3-1.64-6-2.13-9.15-.28-1.82-.5-3.63.4-5.37a3.23,3.23,0,0,0,.26-.9A1.36,1.36,0,0,0,56.8.66a23.38,23.38,0,0,0-3.43-.4C53,.13,52.58.24,52.24,0H50.85c-1.21.76-1.27.9-1,2.33a16.72,16.72,0,0,1,.35,2.28c.12,2,.25,4.07.36,6.1.14,2.6.28,5.2-.78,7.68.57-.33,1.14-.67,1.72-1a9.08,9.08,0,0,1,3-1v0c0-.69,0-1.37,0-2.06,0,.69,0,1.38,0,2.06.25,0,.5,0,.75,0a4.31,4.31,0,0,1,3,.78c.43.32.8.72,1.19,1.08A3,3,0,0,0,59.36,17.87Z"/><path class="cls-4" d="M49.08,20.35,49,20.5Z"/></g></g></svg>